<?xml version="1.0" standalone="no"?>
<!DOCTYPE svg PUBLIC "-//W3C//DTD SVG 20010904//EN"
 "http://www.w3.org/TR/2001/REC-SVG-20010904/DTD/svg10.dtd">
<svg version="1.0" xmlns="http://www.w3.org/2000/svg"
 width="766.000000pt" height="766.000000pt" viewBox="0 0 766.000000 766.000000"
 preserveAspectRatio="xMidYMid meet">

<g transform="translate(0.000000,766.000000) scale(0.100000,-0.100000)"
fill="#000000" stroke="none">
<path d="M2660 6445 c0 -12 -18 -15 -105 -15 -63 0 -105 -4 -105 -10 0 -6 -28
-10 -65 -10 -51 0 -65 -3 -65 -15 0 -11 -12 -15 -50 -15 -27 0 -50 -4 -50 -10
0 -5 -16 -10 -35 -10 -24 0 -35 -5 -35 -15 0 -10 -10 -15 -30 -15 -16 0 -30
-4 -30 -10 0 -5 -16 -10 -35 -10 -24 0 -35 -5 -35 -15 0 -9 -9 -15 -25 -15
-16 0 -25 -6 -25 -15 0 -9 -9 -15 -25 -15 -14 0 -25 -4 -25 -10 0 -5 -13 -10
-30 -10 -16 0 -30 -5 -30 -11 0 -17 -27 -39 -49 -39 -12 0 -21 -6 -21 -15 0
-9 -9 -15 -25 -15 -14 0 -25 -4 -25 -10 0 -5 -7 -10 -15 -10 -8 0 -15 -5 -15
-11 0 -19 -28 -39 -54 -39 -14 0 -26 -5 -26 -11 0 -14 -25 -39 -39 -39 -6 0
-11 -7 -11 -15 0 -8 -4 -15 -10 -15 -5 0 -10 -7 -10 -15 0 -8 -7 -15 -15 -15
-8 0 -15 -4 -15 -10 0 -5 -11 -10 -25 -10 -14 0 -25 -5 -25 -11 0 -14 -25 -39
-39 -39 -6 0 -11 -11 -11 -25 0 -14 -4 -25 -10 -25 -5 0 -10 -7 -10 -15 0 -8
-7 -15 -15 -15 -8 0 -15 -4 -15 -10 0 -5 -7 -10 -15 -10 -8 0 -15 -7 -15 -15
0 -8 -4 -15 -10 -15 -5 0 -10 -7 -10 -15 0 -8 -7 -15 -15 -15 -9 0 -15 -9 -15
-21 0 -22 -22 -49 -39 -49 -6 0 -11 -7 -11 -15 0 -8 -4 -15 -10 -15 -5 0 -10
-11 -10 -25 0 -16 -6 -25 -15 -25 -9 0 -15 -9 -15 -25 0 -14 -4 -25 -10 -25
-5 0 -10 -7 -10 -15 0 -8 -7 -15 -15 -15 -9 0 -15 -9 -15 -25 0 -16 -6 -25
-15 -25 -9 0 -15 -9 -15 -25 0 -14 -4 -25 -10 -25 -5 0 -10 -11 -10 -25 0 -16
-6 -25 -15 -25 -11 0 -15 -11 -15 -40 0 -22 -4 -40 -10 -40 -5 0 -10 -11 -10
-25 0 -16 -6 -25 -15 -25 -10 0 -15 -11 -15 -35 0 -19 -4 -35 -10 -35 -5 0
-10 -25 -10 -55 0 -42 -3 -55 -15 -55 -12 0 -15 -13 -15 -60 0 -33 -4 -60 -10
-60 -6 0 -10 -42 -10 -105 0 -87 -3 -105 -15 -105 -12 0 -15 -19 -15 -115 0
-96 3 -115 15 -115 12 0 15 -18 15 -100 0 -60 4 -100 10 -100 6 0 10 -28 10
-65 0 -51 3 -65 15 -65 11 0 15 -12 15 -50 0 -27 5 -50 10 -50 6 0 10 -18 10
-40 0 -29 4 -40 15 -40 9 0 15 -9 15 -25 0 -14 5 -25 10 -25 6 0 10 -18 10
-40 0 -29 4 -40 15 -40 9 0 15 -9 15 -25 0 -14 5 -25 10 -25 6 0 10 -11 10
-25 0 -16 6 -25 15 -25 9 0 15 -9 15 -25 0 -16 6 -25 15 -25 8 0 15 -7 15 -15
0 -8 5 -15 10 -15 6 0 10 -11 10 -25 0 -16 6 -25 15 -25 9 0 15 -9 15 -21 0
-22 22 -49 39 -49 6 0 11 -7 11 -15 0 -8 5 -15 10 -15 6 0 10 -11 10 -25 0
-16 6 -25 15 -25 8 0 15 -5 15 -11 0 -14 25 -39 39 -39 6 0 11 -7 11 -15 0 -8
5 -15 11 -15 17 0 39 -27 39 -49 0 -12 6 -21 15 -21 8 0 15 -5 15 -11 0 -17
27 -39 49 -39 12 0 21 -6 21 -15 0 -8 7 -15 15 -15 8 0 15 -5 15 -11 0 -14 25
-39 39 -39 6 0 11 -5 11 -11 0 -19 28 -39 54 -39 14 0 26 -5 26 -11 0 -14 25
-39 39 -39 6 0 11 -7 11 -15 0 -9 9 -15 25 -15 14 0 25 -4 25 -10 0 -5 11 -10
25 -10 16 0 25 -6 25 -15 0 -8 5 -15 10 -15 6 0 10 -7 10 -15 0 -10 10 -15 30
-15 17 0 30 -4 30 -10 0 -5 11 -10 25 -10 16 0 25 -6 25 -15 0 -9 9 -15 25
-15 14 0 25 -4 25 -10 0 -5 16 -10 35 -10 24 0 35 -5 35 -15 0 -10 10 -15 30
-15 17 0 30 -4 30 -10 0 -5 16 -10 35 -10 24 0 35 -5 35 -15 0 -11 12 -15 50
-15 28 0 50 -4 50 -10 0 -6 28 -10 65 -10 51 0 65 -3 65 -15 0 -12 18 -15 105
-15 63 0 105 -4 105 -10 0 -7 402 -10 1185 -10 783 0 1185 3 1185 10 0 6 42
10 105 10 87 0 105 3 105 15 0 12 13 15 60 15 33 0 60 4 60 10 0 6 25 10 55
10 42 0 55 3 55 15 0 10 11 15 35 15 19 0 35 5 35 10 0 6 11 10 25 10 16 0 25
6 25 15 0 11 11 15 40 15 22 0 40 5 40 10 0 6 11 10 25 10 16 0 25 6 25 15 0
9 9 15 25 15 14 0 25 5 25 10 0 6 11 10 25 10 16 0 25 6 25 15 0 8 7 15 15 15
8 0 15 7 15 15 0 9 9 15 25 15 14 0 25 5 25 10 0 6 11 10 25 10 16 0 25 6 25
15 0 8 5 15 11 15 6 0 17 6 25 14 8 8 14 19 14 25 0 6 11 11 25 11 14 0 25 5
25 10 0 6 7 10 15 10 8 0 15 7 15 15 0 8 5 15 11 15 6 0 17 6 25 14 8 8 14 19
14 25 0 6 7 11 15 11 8 0 15 7 15 15 0 9 9 15 21 15 22 0 49 22 49 39 0 6 7
11 15 11 9 0 15 9 15 21 0 22 22 49 39 49 6 0 11 7 11 15 0 8 5 15 11 15 6 0
17 6 25 14 8 8 14 19 14 25 0 6 7 11 15 11 9 0 15 9 15 25 0 14 5 25 10 25 6
0 10 7 10 15 0 8 5 15 11 15 17 0 39 27 39 49 0 12 6 21 15 21 9 0 15 9 15 25
0 14 5 25 10 25 6 0 10 7 10 15 0 8 7 15 15 15 9 0 15 9 15 25 0 16 6 25 15
25 9 0 15 9 15 25 0 14 5 25 10 25 6 0 10 11 10 25 0 16 6 25 15 25 11 0 15
11 15 40 0 22 5 40 10 40 6 0 10 11 10 25 0 16 6 25 15 25 11 0 15 11 15 40 0
22 5 40 10 40 6 0 10 23 10 50 0 38 4 50 15 50 12 0 15 14 15 65 0 37 4 65 10
65 6 0 10 40 10 100 0 82 3 100 15 100 12 0 15 19 15 115 0 96 -3 115 -15 115
-12 0 -15 18 -15 105 0 63 -4 105 -10 105 -6 0 -10 27 -10 60 0 47 -3 60 -15
60 -12 0 -15 13 -15 55 0 30 -4 55 -10 55 -5 0 -10 16 -10 35 0 24 -5 35 -15
35 -9 0 -15 9 -15 25 0 14 -4 25 -10 25 -5 0 -10 18 -10 40 0 29 -4 40 -15 40
-9 0 -15 9 -15 25 0 14 -4 25 -10 25 -5 0 -10 11 -10 25 0 16 -6 25 -15 25 -9
0 -15 9 -15 25 0 16 -6 25 -15 25 -8 0 -15 7 -15 15 0 8 -4 15 -10 15 -5 0
-10 11 -10 25 0 16 -6 25 -15 25 -9 0 -15 9 -15 25 0 14 -4 25 -10 25 -5 0
-10 7 -10 15 0 8 -5 15 -11 15 -17 0 -39 27 -39 49 0 12 -6 21 -15 21 -8 0
-15 7 -15 15 0 8 -4 15 -10 15 -5 0 -10 7 -10 15 0 8 -7 15 -15 15 -8 0 -15 5
-15 10 0 6 -7 10 -15 10 -8 0 -15 7 -15 15 0 8 -4 15 -10 15 -5 0 -10 11 -10
25 0 14 -5 25 -11 25 -14 0 -39 25 -39 39 0 6 -11 11 -25 11 -14 0 -25 5 -25
10 0 6 -7 10 -15 10 -8 0 -15 7 -15 15 0 8 -4 15 -10 15 -5 0 -10 7 -10 15 0
8 -7 15 -15 15 -8 0 -15 5 -15 10 0 6 -7 10 -15 10 -8 0 -15 7 -15 15 0 9 -9
15 -21 15 -22 0 -49 22 -49 39 0 6 -7 11 -15 11 -8 0 -15 5 -15 10 0 6 -11 10
-25 10 -16 0 -25 6 -25 15 0 9 -9 15 -25 15 -14 0 -25 5 -25 10 0 6 -7 10 -15
10 -8 0 -15 7 -15 15 0 9 -9 15 -25 15 -14 0 -25 5 -25 10 0 6 -11 10 -25 10
-16 0 -25 6 -25 15 0 9 -9 15 -25 15 -16 0 -25 6 -25 15 0 11 -11 15 -40 15
-22 0 -40 5 -40 10 0 6 -11 10 -25 10 -16 0 -25 6 -25 15 0 10 -11 15 -35 15
-19 0 -35 5 -35 10 0 6 -25 10 -55 10 -42 0 -55 3 -55 15 0 12 -13 15 -60 15
-33 0 -60 4 -60 10 0 6 -42 10 -105 10 -87 0 -105 3 -105 15 0 13 -138 15
-1185 15 -1047 0 -1185 -2 -1185 -15z m2240 -635 c0 -6 45 -10 115 -10 96 0
115 -3 115 -15 0 -11 11 -15 40 -15 29 0 40 -4 40 -15 0 -11 11 -15 40 -15 22
0 40 -4 40 -10 0 -5 16 -10 35 -10 24 0 35 -5 35 -15 0 -10 10 -15 30 -15 17
0 30 -4 30 -10 0 -5 11 -10 25 -10 14 0 25 -5 25 -11 0 -17 27 -39 49 -39 12
0 21 -6 21 -15 0 -8 7 -15 15 -15 8 0 15 -4 15 -10 0 -5 11 -10 25 -10 16 0
25 -6 25 -15 0 -8 7 -15 15 -15 8 0 15 -5 15 -11 0 -14 25 -39 39 -39 6 0 11
-5 11 -11 0 -14 25 -39 39 -39 6 0 11 -5 11 -11 0 -14 25 -39 39 -39 6 0 11
-7 11 -15 0 -8 5 -15 10 -15 6 0 10 -11 10 -25 0 -16 6 -25 15 -25 8 0 15 -7
15 -15 0 -8 7 -15 15 -15 9 0 15 -9 15 -21 0 -22 22 -49 39 -49 6 0 11 -11 11
-25 0 -14 5 -25 10 -25 6 0 10 -11 10 -25 0 -16 6 -25 15 -25 11 0 15 -11 15
-40 0 -22 5 -40 10 -40 6 0 10 -11 10 -25 0 -16 6 -25 15 -25 11 0 15 -12 15
-50 0 -27 5 -50 10 -50 6 0 10 -33 10 -80 0 -64 3 -80 15 -80 12 0 15 -18 15
-100 0 -82 -3 -100 -15 -100 -12 0 -15 -17 -15 -90 0 -53 -4 -90 -10 -90 -5 0
-10 -22 -10 -50 0 -38 -4 -50 -15 -50 -9 0 -15 -9 -15 -25 0 -14 -4 -25 -10
-25 -5 0 -10 -18 -10 -40 0 -29 -4 -40 -15 -40 -9 0 -15 -9 -15 -25 0 -14 -4
-25 -10 -25 -5 0 -10 -11 -10 -25 0 -16 -6 -25 -15 -25 -8 0 -15 -7 -15 -15 0
-8 -4 -15 -10 -15 -5 0 -10 -11 -10 -25 0 -16 -6 -25 -15 -25 -8 0 -15 -7 -15
-15 0 -8 -7 -15 -15 -15 -9 0 -15 -9 -15 -21 0 -22 -22 -49 -39 -49 -6 0 -11
-5 -11 -11 0 -14 -25 -39 -39 -39 -6 0 -11 -5 -11 -11 0 -14 -25 -39 -39 -39
-6 0 -11 -7 -11 -15 0 -8 -4 -15 -10 -15 -5 0 -10 -7 -10 -15 0 -8 -7 -15 -15
-15 -8 0 -15 -4 -15 -10 0 -5 -11 -10 -25 -10 -16 0 -25 -6 -25 -15 0 -8 -7
-15 -15 -15 -8 0 -15 -4 -15 -10 0 -5 -11 -10 -25 -10 -14 0 -25 -5 -25 -11 0
-17 -27 -39 -49 -39 -12 0 -21 -6 -21 -15 0 -10 -10 -15 -30 -15 -16 0 -30 -4
-30 -10 0 -5 -16 -10 -35 -10 -24 0 -35 -5 -35 -15 0 -11 -11 -15 -40 -15 -29
0 -40 -4 -40 -15 0 -11 -12 -15 -50 -15 -27 0 -50 -4 -50 -10 0 -7 -428 -10
-1265 -10 -837 0 -1265 3 -1265 10 0 6 -22 10 -50 10 -38 0 -50 4 -50 15 0 11
-11 15 -40 15 -29 0 -40 4 -40 15 0 11 -11 15 -40 15 -22 0 -40 5 -40 10 0 6
-11 10 -25 10 -16 0 -25 6 -25 15 0 9 -9 15 -21 15 -22 0 -49 22 -49 39 0 6
-11 11 -25 11 -14 0 -25 5 -25 10 0 6 -7 10 -15 10 -8 0 -15 7 -15 15 0 9 -9
15 -25 15 -14 0 -25 5 -25 10 0 6 -7 10 -15 10 -8 0 -15 7 -15 15 0 8 -4 15
-10 15 -5 0 -10 7 -10 15 0 8 -5 15 -11 15 -14 0 -39 25 -39 39 0 6 -5 11 -11
11 -14 0 -39 25 -39 39 0 6 -7 11 -15 11 -8 0 -15 5 -15 10 0 6 -7 10 -15 10
-9 0 -15 9 -15 25 0 14 -4 25 -10 25 -5 0 -10 7 -10 15 0 8 -7 15 -15 15 -9 0
-15 9 -15 25 0 14 -4 25 -10 25 -5 0 -10 7 -10 15 0 8 -7 15 -15 15 -9 0 -15
9 -15 25 0 14 -4 25 -10 25 -5 0 -10 11 -10 25 0 16 -6 25 -15 25 -11 0 -15
11 -15 40 0 22 -4 40 -10 40 -5 0 -10 11 -10 25 0 16 -6 25 -15 25 -11 0 -15
12 -15 50 0 38 -4 50 -15 50 -12 0 -15 15 -15 75 0 43 -4 75 -10 75 -6 0 -10
45 -10 115 0 70 4 115 10 115 6 0 10 33 10 80 0 64 3 80 15 80 11 0 15 12 15
50 0 38 4 50 15 50 10 0 15 11 15 35 0 19 5 35 10 35 6 0 10 14 10 30 0 20 5
30 15 30 9 0 15 9 15 25 0 14 5 25 10 25 6 0 10 11 10 25 0 14 5 25 11 25 17
0 39 27 39 49 0 12 6 21 15 21 8 0 15 7 15 15 0 8 5 15 10 15 6 0 10 11 10 25
0 16 6 25 15 25 8 0 15 7 15 15 0 8 5 15 11 15 14 0 39 25 39 39 0 6 5 11 11
11 14 0 39 25 39 39 0 6 5 11 11 11 14 0 39 25 39 39 0 6 7 11 15 11 8 0 15 7
15 15 0 9 9 15 25 15 14 0 25 5 25 10 0 6 7 10 15 10 8 0 15 7 15 15 0 9 9 15
21 15 22 0 49 22 49 39 0 6 11 11 25 11 14 0 25 5 25 10 0 6 11 10 25 10 16 0
25 6 25 15 0 11 11 15 40 15 22 0 40 5 40 10 0 6 18 10 40 10 29 0 40 4 40 15
0 10 11 15 35 15 24 0 35 5 35 15 0 12 18 15 105 15 63 0 105 4 105 10 0 7
363 10 1070 10 707 0 1070 -3 1070 -10z"/>
<path d="M1180 2360 c0 -5 -13 -10 -30 -10 -20 0 -30 -5 -30 -15 0 -9 -9 -15
-21 -15 -22 0 -49 -22 -49 -39 0 -6 -7 -11 -15 -11 -8 0 -15 -7 -15 -15 0 -8
-4 -15 -10 -15 -5 0 -10 -11 -10 -25 0 -16 -6 -25 -15 -25 -9 0 -15 -9 -15
-25 0 -14 -4 -25 -10 -25 -5 0 -10 -22 -10 -50 0 -38 -4 -50 -15 -50 -9 0 -15
-9 -15 -25 0 -16 6 -25 15 -25 12 0 15 -14 15 -65 0 -37 4 -65 10 -65 6 0 10
-11 10 -25 0 -16 6 -25 15 -25 8 0 15 -5 15 -11 0 -14 25 -39 39 -39 6 0 11
-5 11 -11 0 -14 25 -39 39 -39 6 0 11 -7 11 -15 0 -9 9 -15 25 -15 14 0 25 -4
25 -10 0 -5 23 -10 50 -10 38 0 50 -4 50 -15 0 -13 35 -15 255 -15 220 0 255
2 255 15 0 11 12 15 50 15 28 0 50 5 50 10 0 6 14 10 30 10 17 0 30 5 30 11 0
14 25 39 39 39 6 0 11 5 11 11 0 14 25 39 39 39 6 0 11 7 11 15 0 8 5 15 10
15 6 0 10 11 10 25 0 16 6 25 15 25 11 0 15 11 15 40 0 22 5 40 10 40 6 0 10
28 10 65 0 37 -4 65 -10 65 -5 0 -10 16 -10 35 0 24 -5 35 -15 35 -9 0 -15 9
-15 25 0 14 -4 25 -10 25 -5 0 -10 11 -10 25 0 16 -6 25 -15 25 -8 0 -15 7
-15 15 0 8 -4 15 -10 15 -5 0 -10 7 -10 15 0 8 -7 15 -15 15 -8 0 -15 5 -15
10 0 6 -11 10 -25 10 -16 0 -25 6 -25 15 0 9 -9 15 -25 15 -14 0 -25 5 -25 10
0 6 -117 10 -330 10 -213 0 -330 -4 -330 -10z m630 -130 c0 -5 11 -10 25 -10
16 0 25 -6 25 -15 0 -8 7 -15 15 -15 8 0 15 -4 15 -10 0 -5 7 -10 15 -10 9 0
15 -9 15 -25 0 -14 5 -25 10 -25 6 0 10 -18 10 -40 0 -29 4 -40 15 -40 11 0
15 -11 15 -40 0 -29 -4 -40 -15 -40 -10 0 -15 -11 -15 -35 0 -19 -4 -35 -10
-35 -5 0 -10 -7 -10 -15 0 -8 -7 -15 -15 -15 -8 0 -15 -4 -15 -10 0 -5 -7 -10
-15 -10 -8 0 -15 -7 -15 -15 0 -8 -4 -15 -10 -15 -5 0 -10 -7 -10 -15 0 -9 -9
-15 -25 -15 -14 0 -25 -4 -25 -10 0 -6 -100 -10 -280 -10 -180 0 -280 4 -280
10 0 6 -11 10 -25 10 -16 0 -25 6 -25 15 0 8 -7 15 -15 15 -8 0 -15 7 -15 15
0 8 -5 15 -11 15 -14 0 -39 25 -39 39 0 6 -7 11 -15 11 -11 0 -15 12 -15 49 0
30 -5 52 -12 55 -10 5 -10 7 0 12 7 3 12 26 12 60 0 41 4 54 15 54 9 0 15 9
15 21 0 22 22 49 39 49 6 0 11 7 11 15 0 9 9 15 25 15 14 0 25 5 25 10 0 6
108 10 305 10 197 0 305 -4 305 -10z"/>
<path d="M2170 2000 l0 -370 65 0 65 0 0 305 0 305 280 0 c180 0 280 -4 280
-10 0 -5 7 -10 15 -10 9 0 15 -9 15 -25 0 -14 5 -25 10 -25 6 0 10 -18 10 -40
0 -22 -4 -40 -10 -40 -5 0 -10 -11 -10 -25 0 -16 -6 -25 -15 -25 -8 0 -15 -7
-15 -15 0 -13 -32 -15 -230 -15 -147 0 -230 -4 -230 -10 0 -5 7 -10 15 -10 8
0 15 -5 15 -11 0 -14 25 -39 39 -39 6 0 11 -5 11 -11 0 -14 25 -39 39 -39 6 0
11 -7 11 -15 0 -9 9 -15 25 -15 14 0 25 -4 25 -10 0 -5 7 -10 15 -10 8 0 15
-7 15 -15 0 -8 5 -15 10 -15 6 0 10 -7 10 -15 0 -8 5 -15 11 -15 14 0 39 -25
39 -39 0 -6 5 -11 11 -11 14 0 39 -25 39 -39 0 -6 11 -11 25 -11 14 0 25 -4
25 -10 0 -5 7 -10 15 -10 8 0 15 -7 15 -15 0 -12 17 -15 90 -15 73 0 90 3 90
15 0 8 -5 15 -11 15 -14 0 -39 25 -39 39 0 6 -7 11 -15 11 -8 0 -15 5 -15 10
0 6 -11 10 -25 10 -14 0 -25 5 -25 11 0 14 -25 39 -39 39 -6 0 -11 7 -11 15 0
8 -7 15 -15 15 -8 0 -15 5 -15 11 0 14 -25 39 -39 39 -6 0 -11 7 -11 15 0 12
15 15 76 15 74 0 104 11 104 39 0 6 11 11 25 11 14 0 25 5 25 10 0 6 7 10 15
10 9 0 15 9 15 25 0 14 5 25 10 25 6 0 10 18 10 40 0 29 4 40 15 40 11 0 15
11 15 40 0 29 -4 40 -15 40 -10 0 -15 11 -15 35 0 19 -4 35 -10 35 -5 0 -10
14 -10 30 0 17 -5 30 -11 30 -14 0 -39 25 -39 39 0 6 -11 11 -25 11 -14 0 -25
5 -25 10 0 6 -127 10 -360 10 l-360 0 0 -370z"/>
<path d="M3500 2345 c0 -14 -5 -25 -11 -25 -19 0 -39 -28 -39 -54 0 -14 -5
-26 -11 -26 -17 0 -39 -27 -39 -49 0 -12 -6 -21 -15 -21 -9 0 -15 -9 -15 -25
0 -14 -4 -25 -10 -25 -5 0 -10 -7 -10 -15 0 -8 -7 -15 -15 -15 -9 0 -15 -9
-15 -25 0 -14 -4 -25 -10 -25 -5 0 -10 -7 -10 -15 0 -8 -7 -15 -15 -15 -9 0
-15 -9 -15 -25 0 -16 -6 -25 -15 -25 -9 0 -15 -9 -15 -21 0 -22 -22 -49 -39
-49 -6 0 -11 -11 -11 -25 0 -14 -4 -25 -10 -25 -5 0 -10 -7 -10 -15 0 -8 -7
-15 -15 -15 -9 0 -15 -9 -15 -25 0 -14 -4 -25 -10 -25 -5 0 -10 -7 -10 -15 0
-8 -7 -15 -15 -15 -9 0 -15 -9 -15 -25 0 -14 -4 -25 -10 -25 -5 0 -10 -11 -10
-25 0 -24 3 -25 60 -25 47 0 60 3 60 15 0 8 5 15 11 15 17 0 39 27 39 49 0 12
6 21 15 21 8 0 15 7 15 15 0 8 7 15 15 15 9 0 15 9 15 25 0 14 5 25 10 25 6 0
10 7 10 15 0 8 7 15 15 15 9 0 15 9 15 25 0 14 5 25 10 25 6 0 10 11 10 25 0
14 5 25 11 25 17 0 39 27 39 49 0 12 6 21 15 21 8 0 15 7 15 15 0 8 5 15 10
15 6 0 10 11 10 25 0 16 6 25 15 25 9 0 15 9 15 25 0 16 6 25 15 25 8 0 15 7
15 15 0 8 5 15 10 15 6 0 10 11 10 25 0 20 5 25 25 25 20 0 25 -5 25 -25 0
-16 6 -25 15 -25 8 0 15 -7 15 -15 0 -8 5 -15 10 -15 6 0 10 -11 10 -25 0 -16
6 -25 15 -25 9 0 15 -9 15 -25 0 -14 5 -25 10 -25 6 0 10 -7 10 -15 0 -8 7
-15 15 -15 9 0 15 -9 15 -25 0 -14 5 -25 11 -25 17 0 39 -27 39 -49 0 -20 -5
-21 -180 -21 -153 0 -180 -2 -180 -15 0 -8 7 -15 15 -15 9 0 15 -9 15 -25 0
-14 5 -25 10 -25 6 0 10 -7 10 -15 0 -13 28 -15 191 -15 152 0 193 -3 205 -14
8 -8 14 -19 14 -25 0 -6 7 -11 15 -11 9 0 15 -9 15 -21 0 -22 22 -49 39 -49 6
0 11 -7 11 -15 0 -12 14 -15 65 -15 63 0 65 1 65 25 0 16 -6 25 -15 25 -9 0
-15 9 -15 25 0 14 -4 25 -10 25 -5 0 -10 7 -10 15 0 8 -7 15 -15 15 -9 0 -15
9 -15 25 0 14 -4 25 -10 25 -5 0 -10 7 -10 15 0 8 -7 15 -15 15 -9 0 -15 9
-15 25 0 16 -6 25 -15 25 -9 0 -15 9 -15 21 0 22 -22 49 -39 49 -6 0 -11 11
-11 25 0 14 -4 25 -10 25 -5 0 -10 7 -10 15 0 8 -7 15 -15 15 -9 0 -15 9 -15
25 0 14 -4 25 -10 25 -5 0 -10 7 -10 15 0 8 -7 15 -15 15 -9 0 -15 9 -15 25 0
14 -4 25 -10 25 -5 0 -10 11 -10 25 0 16 -6 25 -15 25 -8 0 -15 5 -15 10 0 6
-7 10 -15 10 -9 0 -15 10 -15 26 0 26 -20 54 -39 54 -6 0 -11 11 -11 25 0 24
-2 25 -75 25 -73 0 -75 -1 -75 -25z"/>
<path d="M4290 2360 c0 -5 -11 -10 -25 -10 -16 0 -25 -6 -25 -15 0 -9 -9 -15
-25 -15 -14 0 -25 -4 -25 -10 0 -5 -7 -10 -15 -10 -8 0 -15 -7 -15 -15 0 -8
-4 -15 -10 -15 -5 0 -10 -7 -10 -15 0 -8 -7 -15 -15 -15 -9 0 -15 -9 -15 -25
0 -14 -4 -25 -10 -25 -5 0 -10 -11 -10 -25 0 -16 -6 -25 -15 -25 -10 0 -15
-11 -15 -35 0 -19 -4 -35 -10 -35 -5 0 -10 -25 -10 -55 0 -30 5 -55 10 -55 6
0 10 -22 10 -50 0 -38 4 -50 15 -50 9 0 15 -9 15 -25 0 -14 5 -25 10 -25 6 0
10 -7 10 -15 0 -8 5 -15 11 -15 14 0 39 -25 39 -39 0 -6 7 -11 15 -11 8 0 15
-4 15 -10 0 -5 7 -10 15 -10 8 0 15 -7 15 -15 0 -9 9 -15 25 -15 14 0 25 -4
25 -10 0 -5 23 -10 50 -10 38 0 50 -4 50 -15 0 -13 32 -15 230 -15 157 0 230
3 230 11 0 14 25 39 39 39 6 0 11 7 11 15 0 8 5 15 10 15 6 0 10 11 10 25 l0
25 -280 0 c-180 0 -280 4 -280 10 0 6 -11 10 -25 10 -16 0 -25 6 -25 15 0 8
-4 15 -10 15 -5 0 -10 7 -10 15 0 8 -5 15 -11 15 -14 0 -39 25 -39 39 0 6 -7
11 -15 11 -10 0 -15 11 -15 35 0 24 -5 35 -15 35 -11 0 -15 11 -15 40 0 29 4
40 15 40 11 0 15 11 15 40 0 29 4 40 15 40 9 0 15 9 15 21 0 22 22 49 39 49 6
0 11 7 11 15 0 9 9 15 25 15 14 0 25 5 25 10 0 6 92 10 255 10 220 0 255 2
255 15 0 8 5 15 10 15 6 0 10 11 10 25 0 16 6 25 15 25 8 0 15 7 15 15 0 8 5
15 10 15 6 0 10 5 10 10 0 6 -108 10 -305 10 -197 0 -305 -4 -305 -10z"/>
<path d="M5010 2015 l0 -355 25 0 c16 0 25 -6 25 -15 0 -13 42 -15 320 -15
221 0 320 3 320 11 0 14 25 39 39 39 6 0 11 7 11 15 0 8 5 15 10 15 6 0 10 11
10 25 l0 25 -320 0 -320 0 0 305 0 305 -60 0 -60 0 0 -355z"/>
<path d="M6030 2360 c0 -5 -11 -10 -25 -10 -16 0 -25 -6 -25 -15 0 -9 -9 -15
-25 -15 -14 0 -25 -4 -25 -10 0 -5 -7 -10 -15 -10 -8 0 -15 -7 -15 -15 0 -8
-4 -15 -10 -15 -5 0 -10 -7 -10 -15 0 -8 -7 -15 -15 -15 -8 0 -15 -4 -15 -10
0 -5 -7 -10 -15 -10 -9 0 -15 -9 -15 -25 0 -14 -4 -25 -10 -25 -5 0 -10 -11
-10 -25 0 -16 -6 -25 -15 -25 -12 0 -15 -18 -15 -105 0 -87 3 -105 15 -105 10
0 15 -11 15 -35 0 -19 5 -35 10 -35 6 0 10 -13 10 -30 0 -20 5 -30 15 -30 8 0
15 -4 15 -10 0 -5 7 -10 15 -10 8 0 15 -5 15 -11 0 -17 27 -39 49 -39 12 0 21
-6 21 -15 0 -9 9 -15 25 -15 14 0 25 -4 25 -10 0 -5 25 -10 55 -10 42 0 55 -3
55 -15 0 -13 32 -15 230 -15 157 0 230 3 230 11 0 14 25 39 39 39 6 0 11 11
11 25 0 14 5 25 10 25 6 0 10 7 10 15 0 13 -38 15 -280 15 -180 0 -280 4 -280
10 0 6 -11 10 -25 10 -16 0 -25 6 -25 15 0 9 -9 15 -25 15 -16 0 -25 6 -25 15
0 8 -7 15 -15 15 -9 0 -15 9 -15 25 0 14 -4 25 -10 25 -5 0 -10 11 -10 25 l0
25 290 0 c187 0 290 4 290 10 0 6 7 10 15 10 9 0 15 9 15 25 0 16 6 25 15 25
8 0 15 7 15 15 0 8 5 15 10 15 6 0 10 7 10 15 0 13 -43 15 -330 15 l-330 0 0
35 c0 19 5 35 10 35 6 0 10 7 10 15 0 8 5 15 11 15 14 0 39 25 39 39 0 6 7 11
15 11 8 0 15 5 15 10 0 6 92 10 255 10 220 0 255 2 255 15 0 8 7 15 15 15 8 0
15 5 15 11 0 14 25 39 39 39 6 0 11 11 11 25 l0 25 -295 0 c-190 0 -295 -4
-295 -10z"/>
<path d="M6733 2355 c-18 -19 -16 -103 1 -121 16 -16 86 -19 86 -4 0 6 7 10
15 10 8 0 15 7 15 15 0 8 5 15 10 15 6 0 10 11 10 25 0 14 -4 25 -10 25 -5 0
-10 11 -10 25 0 24 -3 25 -52 25 -33 -1 -58 -6 -65 -15z"/>
</g>
</svg>
